<?xml version="1.0" encoding="utf-8"?>
<!-- Generator: Adobe Illustrator 23.0.3, SVG Export Plug-In . SVG Version: 6.00 Build 0)  -->
<svg version="1.1" id="Layer_1" xmlns="http://www.w3.org/2000/svg" xmlns:xlink="http://www.w3.org/1999/xlink" x="0px" y="0px"
	 viewBox="0 0 150 150" style="enable-background:new 0 0 150 150;" xml:space="preserve">
<style type="text/css">
	.st0{fill:url(#SVGID_1_);}
	.st1{fill:url(#SVGID_2_);}
</style>
<g>
	<linearGradient id="SVGID_1_" gradientUnits="userSpaceOnUse" x1="31.242" y1="88.4785" x2="47.1315" y2="123.2001">
		<stop  offset="0" style="stop-color:#595959"/>
		<stop  offset="0.9947" style="stop-color:#0A0A0A"/>
	</linearGradient>
	<path class="st0" d="M73.03,124.67l-40.19,19.55c-1.43,0.7-3.16,0.1-3.86-1.33L9.43,102.71c-0.7-1.43-0.1-3.16,1.33-3.86
		L50.95,79.3c1.43-0.7,3.16-0.1,3.86,1.33l19.55,40.19C75.06,122.25,74.46,123.98,73.03,124.67z"/>
	<linearGradient id="SVGID_2_" gradientUnits="userSpaceOnUse" x1="88.5944" y1="17.8313" x2="98.0104" y2="77.8584">
		<stop  offset="0" style="stop-color:#B7F7E8"/>
		<stop  offset="0.9947" style="stop-color:#88EFD1"/>
	</linearGradient>
	<path class="st1" d="M138.54,70.81L81.05,98.77c-2.05,1-4.52,0.14-5.52-1.91L47.57,39.38c-1-2.05-0.14-4.52,1.91-5.52L106.96,5.9
		c2.05-1,4.52-0.14,5.52,1.91l27.97,57.48C141.44,67.34,140.59,69.81,138.54,70.81z"/>
</g>
</svg>
