<?xml version="1.0" encoding="utf-8"?>
<!-- Generator: Adobe Illustrator 23.0.3, SVG Export Plug-In . SVG Version: 6.00 Build 0)  -->
<svg version="1.1" id="Layer_1" xmlns="http://www.w3.org/2000/svg" xmlns:xlink="http://www.w3.org/1999/xlink" x="0px" y="0px"
	 viewBox="0 0 82.44 98.11" style="enable-background:new 0 0 82.44 98.11;" xml:space="preserve">
<style type="text/css">
	.st0{fill:url(#SVGID_1_);}
	.st1{fill:url(#SVGID_2_);}
</style>
<linearGradient id="SVGID_1_" gradientUnits="userSpaceOnUse" x1="24.6447" y1="28.1523" x2="49.9388" y2="78.7406">
	<stop  offset="0" style="stop-color:#585858"/>
	<stop  offset="0.9983" style="stop-color:#090A0A"/>
</linearGradient>
<path class="st0" d="M34.2,94.34L3.76,67.27c-3.68-3.68-3.68-9.66,0-13.34L34.2,25.74c3.68-3.68,9.66-3.68,13.34,0l30.44,28.19
	c3.68,3.68,3.68,9.66,0,13.34L47.54,94.34C43.86,98.03,37.88,98.03,34.2,94.34z"/>
<linearGradient id="SVGID_2_" gradientUnits="userSpaceOnUse" x1="39.6021" y1="4.4978" x2="41.9029" y2="55.5754">
	<stop  offset="0" style="stop-color:#BBDFDA"/>
	<stop  offset="0.9988" style="stop-color:#97D0C2"/>
</linearGradient>
<path class="st1" d="M35.26,61.05L9.64,38.27c-3.1-3.1-3.1-8.12,0-11.22L35.26,3.32c3.1-3.1,8.12-3.1,11.22,0L72.1,27.04
	c3.1,3.1,3.1,8.12,0,11.22L46.48,61.05C43.38,64.15,38.36,64.15,35.26,61.05z"/>
</svg>
