<?xml version="1.0" encoding="utf-8"?>
<!-- Generator: Adobe Illustrator 23.0.3, SVG Export Plug-In . SVG Version: 6.00 Build 0)  -->
<svg version="1.1" id="Layer_1" xmlns="http://www.w3.org/2000/svg" xmlns:xlink="http://www.w3.org/1999/xlink" x="0px" y="0px"
	 viewBox="0 0 122.21 98.11" style="enable-background:new 0 0 122.21 98.11;" xml:space="preserve">
<style type="text/css">
	.st0{fill:url(#SVGID_1_);}
	.st1{fill:url(#SVGID_2_);}
</style>
<linearGradient id="SVGID_1_" gradientUnits="userSpaceOnUse" x1="33.002" y1="0.7658" x2="56.5719" y2="92.4264">
	<stop  offset="0" style="stop-color:#F7B59E"/>
	<stop  offset="0.9988" style="stop-color:#F0856E"/>
</linearGradient>
<path class="st0" d="M76.49,15.88L43.57,2.71c-3.31-1.33-7.08-0.78-9.89,1.42L5.81,26.07c-2.81,2.21-4.22,5.74-3.71,9.28l5.06,35.09
	c0.51,3.53,2.86,6.53,6.18,7.85l32.92,13.17c3.31,1.33,7.08,0.78,9.89-1.42l27.86-21.93c2.81-2.21,4.22-5.74,3.71-9.28l-5.06-35.09
	C82.16,20.2,79.8,17.21,76.49,15.88z"/>
<linearGradient id="SVGID_2_" gradientUnits="userSpaceOnUse" x1="88.8279" y1="44.3605" x2="101.0713" y2="99.6667">
	<stop  offset="0" style="stop-color:#FFE55A"/>
	<stop  offset="1" style="stop-color:#FFCF39"/>
</linearGradient>
<circle class="st1" cx="94.73" cy="71.04" r="23.95"/>
</svg>
