<?xml version="1.0" encoding="utf-8"?>
<!-- Generator: Adobe Illustrator 23.0.3, SVG Export Plug-In . SVG Version: 6.00 Build 0)  -->
<svg version="1.1" id="Layer_1" xmlns="http://www.w3.org/2000/svg" xmlns:xlink="http://www.w3.org/1999/xlink" x="0px" y="0px"
	 viewBox="0 0 150 150" style="enable-background:new 0 0 150 150;" xml:space="preserve">
<style type="text/css">
	.st0{fill:url(#SVGID_1_);}
	.st1{fill:url(#SVGID_2_);}
</style>
<g>
	<linearGradient id="SVGID_1_" gradientUnits="userSpaceOnUse" x1="78.4483" y1="66.2264" x2="87.309" y2="109.8483">
		<stop  offset="0" style="stop-color:#595959"/>
		<stop  offset="0.9947" style="stop-color:#0A0A0A"/>
	</linearGradient>
	<path class="st0" d="M132.95,114.25h-96.4c-1.55,0-2.8-1.25-2.8-2.8v-28.4c0-1.55,1.25-2.8,2.8-2.8h96.4c1.55,0,2.8,1.25,2.8,2.8
		v28.4C135.75,113,134.5,114.25,132.95,114.25z"/>
	<linearGradient id="SVGID_2_" gradientUnits="userSpaceOnUse" x1="45.8576" y1="20.4293" x2="70.3949" y2="61.3248">
		<stop  offset="0" style="stop-color:#B7F7E8"/>
		<stop  offset="0.9947" style="stop-color:#88EFD1"/>
	</linearGradient>
	<path class="st1" d="M113.45,69.75h-96.4c-1.55,0-2.8-1.25-2.8-2.8v-28.4c0-1.55,1.25-2.8,2.8-2.8h96.4c1.55,0,2.8,1.25,2.8,2.8
		v28.4C116.25,68.5,115,69.75,113.45,69.75z"/>
</g>
</svg>
