<?xml version="1.0" encoding="utf-8"?>
<!-- Generator: Adobe Illustrator 23.0.3, SVG Export Plug-In . SVG Version: 6.00 Build 0)  -->
<svg version="1.1" id="Layer_1" xmlns="http://www.w3.org/2000/svg" xmlns:xlink="http://www.w3.org/1999/xlink" x="0px" y="0px"
	 viewBox="0 0 150 150" style="enable-background:new 0 0 150 150;" xml:space="preserve">
<style type="text/css">
	.st0{fill:url(#SVGID_1_);}
	.st1{fill:url(#SVGID_2_);}
</style>
<g>
	<linearGradient id="SVGID_1_" gradientUnits="userSpaceOnUse" x1="104.5728" y1="18.2553" x2="99.5691" y2="54.9489">
		<stop  offset="0" style="stop-color:#595959"/>
		<stop  offset="0.9947" style="stop-color:#0A0A0A"/>
	</linearGradient>
	<path class="st0" d="M121.21,70.88l14.2-54.88c0.67-2.61-1.76-4.95-4.34-4.17L74.59,28.94c-2.58,0.78-3.31,4.08-1.3,5.88
		l42.28,37.77C117.5,74.31,120.56,73.38,121.21,70.88z"/>
	<linearGradient id="SVGID_2_" gradientUnits="userSpaceOnUse" x1="46.3598" y1="55.8568" x2="63.3997" y2="117.2002">
		<stop  offset="0" style="stop-color:#75C9F2"/>
		<stop  offset="0.9983" style="stop-color:#54A5DC"/>
	</linearGradient>
	<path class="st1" d="M85.5,128.25l-35.37,9.81c-2.57,0.71-5.33,0-7.23-1.87l-26.18-25.73c-1.9-1.87-2.66-4.61-2-7.2l9.19-35.54
		c0.67-2.58,2.66-4.61,5.24-5.33l35.37-9.81c2.57-0.71,5.33,0,7.23,1.87l26.18,25.73c1.9,1.87,2.66,4.61,2,7.2l-9.19,35.54
		C90.06,125.5,88.07,127.53,85.5,128.25z"/>
</g>
</svg>
